<?xml version="1.0" encoding="utf-8"?>
<!-- Generator: Adobe Illustrator 24.3.0, SVG Export Plug-In . SVG Version: 6.00 Build 0)  -->
<svg version="1.1" id="Layer_1" xmlns="http://www.w3.org/2000/svg" xmlns:xlink="http://www.w3.org/1999/xlink" x="0px" y="0px"
	 viewBox="0 0 100 100" style="enable-background:new 0 0 100 100;" xml:space="preserve">
<style type="text/css">
	.st0{fill:#216DB2;}
</style>
<g>
	<path class="st0" d="M56.3,72.9c2.3-2.2,4.3-4.2,6.5-6.1c2.8-2.5,6.9-2.5,9.6,0.1c3.7,3.5,7.3,7.2,10.8,10.9
		c2.4,2.6,2.6,6.8,0.3,9.4c-2.4,2.8-5,5.5-7.8,8c-2.6,2.4-6,3-9.5,2.7c-5.3-0.4-10.2-2.2-15-4.6c-15.2-7.6-26.7-18.9-35-33.7
		c-2.4-4.3-4.3-8.8-5.4-13.6c-0.8-3.7-1.2-7.4,0.4-10.9c0.6-1.4,1.5-2.7,2.6-3.9c2.2-2.3,4.4-4.6,6.8-6.7c2.6-2.3,6.7-2.4,9.4-0.1
		c1.8,1.5,3.5,3.3,5.2,5c1.8,1.8,3.7,3.6,5.5,5.5c3.5,3.7,3,8.1-0.5,11.6c-1.7,1.7-3.3,3.4-5.1,5.3C40.1,60.7,47.2,67.8,56.3,72.9z
		 M67.9,93.4c1.6,0,3.7-0.4,5.2-2c2.2-2.1,4.3-4.3,6.4-6.5c1.3-1.4,1.3-3.1,0-4.5c-0.6-0.7-1.2-1.3-1.9-1.9c-2.7-2.7-5.3-5.3-8-8
		c-0.8-0.8-1.7-1.3-2.8-0.9c-0.7,0.3-1.5,0.7-2.1,1.3c-1.8,1.7-3.5,3.5-5.3,5.3s-3,1.9-5.2,0.8c-4.8-2.4-9.1-5.7-12.9-9.5
		c-4.2-4.1-8-8.5-10.4-13.9c-1.1-2.4-0.9-3.5,1-5.4c1.8-1.8,3.6-3.5,5.4-5.4c1.5-1.6,1.5-3.2,0-4.8c-3-3.1-6.1-6.1-9.1-9.2
		c-2-2-3.7-2-5.7,0c-1.7,1.6-3.3,3.3-5,4.9c-2,1.9-2.9,4.3-2.8,7.1c0.1,3.5,1.1,6.7,2.3,9.9c3,7.8,7.6,14.5,13.1,20.8
		c7.2,8.2,15.8,14.5,25.7,19C59.5,92.1,63.3,93.3,67.9,93.4z"/>
	<path class="st0" d="M54.7,18c1.9,0.5,4.1,0.9,6.3,1.7c5.8,1.9,11,5,15.6,9.2c6.8,6.3,11.2,14,13,23.1c0.1,0.4,0.2,0.8,0.3,1.2
		c0.2,1.2-0.5,2.3-1.6,2.6c-1.2,0.3-2.4-0.3-2.7-1.5c-0.4-1.4-0.6-2.8-1-4.1c-2.2-8.2-6.8-14.8-13.5-20.1
		c-4.9-3.9-10.5-6.3-16.7-7.5c-1.9-0.4-2.8-1.8-2.1-3.3C52.7,18.5,53.4,18.1,54.7,18z"/>
	<path class="st0" d="M75.4,54.1c0,1.4-0.8,2.3-2,2.5c-1,0.2-2.1-0.5-2.4-1.6c-0.4-1.3-0.6-2.8-1.2-4.1c-2.9-7.4-8.3-12-16.1-13.7
		c-0.9-0.2-1.7-0.4-2.2-1.3c-0.4-0.8-0.4-1.6,0.2-2.3c0.6-0.8,1.5-1.1,2.4-0.9c1.9,0.5,3.9,0.9,5.7,1.8c8.4,3.8,13.5,10.3,15.4,19.2
		C75.4,53.9,75.4,54.1,75.4,54.1z"/>
</g>
</svg>
