<?xml version="1.0" encoding="utf-8"?>
<!-- Generator: Adobe Illustrator 24.3.0, SVG Export Plug-In . SVG Version: 6.00 Build 0)  -->
<svg version="1.1" id="Layer_1" xmlns="http://www.w3.org/2000/svg" xmlns:xlink="http://www.w3.org/1999/xlink" x="0px" y="0px"
	 viewBox="0 0 100 100" style="enable-background:new 0 0 100 100;" xml:space="preserve">
<style type="text/css">
	.st0{fill:#216DB2;}
</style>
<g>
	<path class="st0" d="M35.5,90.6c0-2.8,0-5.4,0-7.9c0-2.5,1.1-3.6,3.6-3.6c3.4,0,6.8,0,10.2,0c2.5,0,3.6,1.2,3.6,3.7
		c0,2.6,0,5.2,0,7.8c3.9,0,7.6,0,11.4,0c0-20.8,0-41.5,0-62.4c-4.1,1-8,2-12,3c-9,2.3-18,4.5-27.1,6.7c-1,0.3-1.3,0.7-1.3,1.7
		c0,13.4,0,26.7,0,40.1c0,0.8,0,1.7,0,2.5c-0.1,1.6-1.5,2.8-2.9,2.7c-1.4,0-2.7-1.3-2.9-2.8c0-0.3,0-0.6,0-0.8c0-14.9,0-29.8,0-44.6
		c0-2.2,0.8-3.2,2.9-3.7c13.5-3.4,27.1-6.7,40.6-10.1c1.5-0.4,3-0.8,4.5-1.1c2.4-0.6,4,0.7,4,3.2c0,2.7,0,5.5,0,8.2
		c0,0.8,0.3,1.2,1,1.6c2.7,1.3,5.3,2.7,8,3.9c2,0.9,2.7,2.2,2.7,4.3c-0.1,15.3,0,30.6,0,45.9c0,0.6,0,1.1,0,1.8c0.8,0,1.4,0,2,0
		c2.4,0,3.7,1,3.7,2.9c0,1.8-1.3,2.8-3.6,2.8c-10.3,0-20.6,0-30.9,0c-12.3,0-24.7,0-37,0c-1.9,0-3.2-0.8-3.4-2.3
		c-0.4-2,0.9-3.5,3.2-3.5c5.9,0,11.9,0,17.8,0C34.1,90.6,34.7,90.6,35.5,90.6z M76,90.6c0-3.7,0-7.2,0-10.7c0-11.7,0-23.4,0-35.2
		c0-0.5-0.1-1.2-0.4-1.4c-1.7-1-3.4-1.8-5.2-2.7c0,16.8,0,33.3,0,49.9C72.2,90.6,74,90.6,76,90.6z M47,90.6c0-1.9,0-3.7,0-5.5
		c-1.9,0-3.7,0-5.5,0c0,1.9,0,3.7,0,5.5C43.3,90.6,45.1,90.6,47,90.6z"/>
	<path class="st0" d="M29.8,50.3c0-1.9,0-3.7,0-5.6c1.9,0,3.7,0,5.6,0c0,1.9,0,3.7,0,5.6C33.6,50.3,31.8,50.3,29.8,50.3z"/>
	<path class="st0" d="M47,44.7c0,1.9,0,3.7,0,5.5c-1.8,0-3.6,0-5.6,0c0-1.8,0-3.7,0-5.5C43.4,44.7,45.2,44.7,47,44.7z"/>
	<path class="st0" d="M58.6,44.7c0,1.9,0,3.7,0,5.6c-1.9,0-3.7,0-5.6,0c0-1.9,0-3.7,0-5.6C54.8,44.7,56.6,44.7,58.6,44.7z"/>
	<path class="st0" d="M29.8,61.7c0-1.9,0-3.6,0-5.5c1.9,0,3.7,0,5.6,0c0,1.8,0,3.6,0,5.5C33.6,61.7,31.8,61.7,29.8,61.7z"/>
	<path class="st0" d="M47,56.3c0,1.8,0,3.6,0,5.5c-1.8,0-3.6,0-5.5,0c0-1.8,0-3.6,0-5.5C43.3,56.3,45.1,56.3,47,56.3z"/>
	<path class="st0" d="M58.6,56.3c0,1.9,0,3.6,0,5.5c-1.8,0-3.6,0-5.6,0c0-1.8,0-3.6,0-5.5C54.8,56.3,56.6,56.3,58.6,56.3z"/>
	<path class="st0" d="M29.9,67.7c1.9,0,3.6,0,5.5,0c0,1.9,0,3.7,0,5.6c-1.9,0-3.7,0-5.5,0C29.9,71.5,29.9,69.7,29.9,67.7z"/>
	<path class="st0" d="M41.5,67.7c1.9,0,3.7,0,5.5,0c0,1.9,0,3.7,0,5.6c-1.8,0-3.6,0-5.5,0C41.5,71.5,41.5,69.6,41.5,67.7z"/>
	<path class="st0" d="M58.6,73.4c-1.9,0-3.6,0-5.5,0c0-1.8,0-3.7,0-5.6c1.8,0,3.6,0,5.5,0C58.6,69.6,58.6,71.4,58.6,73.4z"/>
</g>
</svg>
