<?xml version="1.0" encoding="utf-8"?>
<!-- Generator: Adobe Illustrator 24.3.0, SVG Export Plug-In . SVG Version: 6.00 Build 0)  -->
<svg version="1.1" id="Layer_1" xmlns="http://www.w3.org/2000/svg" xmlns:xlink="http://www.w3.org/1999/xlink" x="0px" y="0px"
	 viewBox="0 0 100 100" style="enable-background:new 0 0 100 100;" xml:space="preserve">
<style type="text/css">
	.st0{fill:#216DB2;}
	.st1{fill:#FFFFFF;}
</style>
<path class="st0" d="M86.6,100H13.4C6,100,0,94,0,86.6V13.4C0,6,6,0,13.4,0h73.2C94,0,100,6,100,13.4v73.2C100,94,94,100,86.6,100z"
	/>
<path class="st1" d="M50,89.6c-22,0-39.8-17.7-39.8-39.6c0-21.9,17.8-39.7,39.8-39.6c21.9,0,39.7,17.7,39.7,39.6
	C89.8,71.8,72,89.6,50,89.6z M47.6,47.6c0-4,0-7.8,0-11.6c-4.5-0.3-8.9-0.6-13.3-0.9c-1,4.1-1.6,8.2-1.6,12.5
	C37.7,47.6,42.6,47.6,47.6,47.6z M67.6,47.6c-0.6-4.2-1.1-8.3-1.6-12.4c-4.7,0.3-9.1,0.6-13.6,0.9c0,3.9,0,7.7,0,11.6
	C57.4,47.6,62.3,47.6,67.6,47.6z M15.1,47.5c0.3,0.1,0.4,0.1,0.6,0.1c3.8,0,7.6,0,11.4,0c0.8,0,0.9-0.4,0.9-1
	c0.2-2.6,0.4-5.2,0.7-7.7c0.2-1.5,0.5-3.1,0.8-4.5c-3.3-0.8-6.4-1.5-9.6-2.3C17,36.8,15.4,41.9,15.1,47.5z M84.9,52.4
	c-4.2,0-8.2,0-12.2,0c-0.8,0-0.7,0.6-0.7,1.1c-0.3,2.7-0.5,5.5-0.9,8.2c-0.2,1.3-0.4,2.5-0.7,3.7c3.1,0.8,6.1,1.5,9.1,2.2
	c0.3,0.1,0.8-0.2,1-0.5c0.8-1.5,1.6-3.1,2.2-4.7C84,59.2,84.8,56,84.9,52.4z M70.8,34.4c0.4,4.3,0.8,8.5,1.3,12.6
	c0,0.3,0.7,0.6,1,0.6c2.6,0,5.3,0,7.9,0c1.3,0,2.6,0,3.8,0c0.1-0.2,0.1-0.3,0.1-0.4c-0.3-5.2-1.8-10-4.4-14.5
	c-0.1-0.2-0.7-0.4-0.9-0.4c-1.1,0.2-2.1,0.5-3.2,0.8C74.5,33.7,72.5,34,70.8,34.4z M52.4,63.7c4.5,0.3,8.9,0.6,13.4,1
	c1-4,1.5-8.1,1.6-12.2c-5.1,0-10.1,0-15,0C52.4,56.3,52.4,60,52.4,63.7z M47.6,63.7c0-3.8,0-7.5,0-11.3c-5,0-10,0-15.2,0
	c0.6,4.1,1.1,8.2,1.6,12.2C38.7,64.3,43.1,64,47.6,63.7z M15.3,52.3c-0.2,0.2-0.2,0.2-0.2,0.2c0.2,5.2,1.8,10,4.3,14.5
	c0.1,0.2,0.7,0.3,1,0.3c1.6-0.4,3.2-0.8,4.8-1.2c1.4-0.3,2.8-0.6,4.2-0.8c0-0.3,0-0.4,0-0.6c-0.5-3.9-1-7.8-1.4-11.7
	c-0.1-0.8-0.5-0.8-1.1-0.8c-2.3,0-4.6,0-6.9,0C18.4,52.3,16.8,52.3,15.3,52.3z M52.4,15.2c0,5.5,0,10.7,0,16.1c4-0.2,8-0.5,12.1-0.7
	C62,24.2,59.3,18.2,52.4,15.2z M35.7,69.2c1.8,6.4,7,14.4,11.9,15c0-5.2,0-10.3,0-15.7C43.6,68.7,39.7,68.9,35.7,69.2z M47.6,15.5
	c-4.4,0.7-11.8,10-11.8,15c3.9,0.2,7.8,0.5,11.8,0.7C47.6,25.9,47.6,20.7,47.6,15.5z M52.4,84.3c5.4-1.2,10.5-9.3,11.9-15
	c-4-0.3-7.9-0.5-11.9-0.8C52.4,73.9,52.4,79,52.4,84.3z M37.4,82.5c-2.7-3.4-4.5-7-5.9-10.8c-0.7-1.8-0.7-1.8-2.5-1.5
	c-2.1,0.4-4.2,0.9-6.4,1.3C25.2,75.7,32.7,81.2,37.4,82.5z M62.8,82.6c5.8-2.4,10.6-5.8,14.6-10.9c-3-0.6-5.6-1.2-8.1-1.8
	c-1,2.3-1.8,4.5-2.9,6.5C65.4,78.5,64.1,80.5,62.8,82.6z M77.5,28.3c-4-4.9-8.7-8.4-14-10.6c2,3.9,4,7.9,6.2,12.2
	C71.9,29.4,74.5,28.9,77.5,28.3z M36.6,17.7c-5.3,2.2-9.9,5.5-13.9,10.4c2.8,0.6,5.5,1.2,7.7,1.7C32.6,25.5,34.6,21.6,36.6,17.7z"/>
</svg>
