<?xml version="1.0" encoding="utf-8"?>
<!-- Generator: Adobe Illustrator 24.3.0, SVG Export Plug-In . SVG Version: 6.00 Build 0)  -->
<svg version="1.1" id="Layer_1" xmlns="http://www.w3.org/2000/svg" xmlns:xlink="http://www.w3.org/1999/xlink" x="0px" y="0px"
	 viewBox="0 0 100 100" style="enable-background:new 0 0 100 100;" xml:space="preserve">
<style type="text/css">
	.st0{fill:#216DB2;}
</style>
<path class="st0" d="M49.6,98.3c-22,0-39.8-17.7-39.8-39.6S27.6,19,49.6,19.1c21.9,0,39.7,17.7,39.7,39.6
	C89.4,80.5,71.6,98.3,49.6,98.3z M47.2,56.3c0-4,0-7.8,0-11.6c-4.5-0.3-8.9-0.6-13.3-0.9c-1,4.1-1.6,8.2-1.6,12.5
	C37.3,56.3,42.2,56.3,47.2,56.3z M67.2,56.3c-0.6-4.2-1.1-8.3-1.6-12.4c-4.7,0.3-9.1,0.6-13.6,0.9c0,3.9,0,7.7,0,11.6
	C57,56.3,61.9,56.3,67.2,56.3z M14.7,56.2c0.3,0.1,0.4,0.1,0.6,0.1c3.8,0,7.6,0,11.4,0c0.8,0,0.9-0.4,0.9-1c0.2-2.6,0.4-5.2,0.7-7.7
	c0.2-1.5,0.5-3.1,0.8-4.5c-3.3-0.8-6.4-1.5-9.6-2.3C16.6,45.5,15,50.6,14.7,56.2z M84.5,61.1c-4.2,0-8.2,0-12.2,0
	c-0.8,0-0.7,0.6-0.7,1.1c-0.3,2.7-0.5,5.5-0.9,8.2c-0.2,1.3-0.4,2.5-0.7,3.7c3.1,0.8,6.1,1.5,9.1,2.2c0.3,0.1,0.8-0.2,1-0.5
	c0.8-1.5,1.6-3.1,2.2-4.7C83.6,67.9,84.4,64.7,84.5,61.1z M70.4,43.1c0.4,4.3,0.8,8.5,1.3,12.6c0,0.3,0.7,0.6,1,0.6
	c2.6,0,5.3,0,7.9,0c1.3,0,2.6,0,3.8,0c0.1-0.2,0.1-0.3,0.1-0.4c-0.3-5.2-1.8-10-4.4-14.5C80,41.2,79.4,41,79.2,41
	c-1.1,0.2-2.1,0.5-3.2,0.8C74.1,42.4,72.1,42.7,70.4,43.1z M52,72.4c4.5,0.3,8.9,0.6,13.4,1c1-4,1.5-8.1,1.6-12.2
	c-5.1,0-10.1,0-15,0C52,65,52,68.7,52,72.4z M47.2,72.4c0-3.8,0-7.5,0-11.3c-5,0-10,0-15.2,0c0.6,4.1,1.1,8.2,1.6,12.2
	C38.3,73,42.7,72.7,47.2,72.4z M14.9,61c-0.2,0.2-0.2,0.2-0.2,0.2c0.2,5.2,1.8,10,4.3,14.5c0.1,0.2,0.7,0.3,1,0.3
	c1.6-0.4,3.2-0.8,4.8-1.2c1.4-0.3,2.8-0.6,4.2-0.8c0-0.3,0-0.4,0-0.6c-0.5-3.9-1-7.8-1.4-11.7c-0.1-0.8-0.5-0.8-1.1-0.8
	c-2.3,0-4.6,0-6.9,0C18,61,16.4,61,14.9,61z M52,23.9c0,5.5,0,10.7,0,16.1c4-0.2,8-0.5,12.1-0.7C61.6,32.9,58.9,26.9,52,23.9z
	 M35.3,77.9c1.8,6.4,7,14.4,11.9,15c0-5.2,0-10.3,0-15.7C43.2,77.4,39.3,77.6,35.3,77.9z M47.2,24.2c-4.4,0.7-11.8,10-11.8,15
	c3.9,0.2,7.8,0.5,11.8,0.7C47.2,34.6,47.2,29.4,47.2,24.2z M52,93c5.4-1.2,10.5-9.3,11.9-15c-4-0.3-7.9-0.5-11.9-0.8
	C52,82.6,52,87.7,52,93z M37,91.2c-2.7-3.4-4.5-7-5.9-10.8c-0.7-1.8-0.7-1.8-2.5-1.5c-2.1,0.4-4.2,0.9-6.4,1.3
	C24.8,84.4,32.3,89.9,37,91.2z M62.4,91.3C68.2,88.9,73,85.5,77,80.4c-3-0.6-5.6-1.2-8.1-1.8c-1,2.3-1.8,4.5-2.9,6.5
	C65,87.2,63.7,89.2,62.4,91.3z M77.1,37c-4-4.9-8.7-8.4-14-10.6c2,3.9,4,7.9,6.2,12.2C71.5,38.1,74.1,37.6,77.1,37z M36.2,26.4
	c-5.3,2.2-9.9,5.5-13.9,10.4c2.8,0.6,5.5,1.2,7.7,1.7C32.2,34.2,34.2,30.3,36.2,26.4z"/>
</svg>
